<svg xmlns="http://www.w3.org/2000/svg" width="191" height="92" fill="none" viewBox="0 0 191 92">
  <path fill="#18301F" d="M145.959 37.65h8.895v-2.785h-6.053V32.81h5.294v-2.678h-5.286V28.15h6.06v-2.72h-8.91v12.22Zm-43.039.01c2.636.622 5.286-.46 6.645-2.411-.354-.292-.71-.589-1.068-.881-.367-.3-.736-.595-1.102-.891-1.895 2.142-4.324 1.51-5.429.408-1.256-1.253-1.327-3.3-.15-4.665.604-.701 1.378-1.12 2.296-1.217 1.35-.142 2.397.454 3.254 1.471l2.233-1.823c-1.639-2.26-4.632-3.178-7.25-2.273-2.633.912-4.453 3.625-4.297 6.406.158 2.814 2.159 5.236 4.868 5.876Zm-19.5-.056h3.324l3.948-6.996c1.346 2.38 2.65 4.69 3.954 6.994h3.356l-7.338-12.764c-2.358 4.347-4.842 8.5-7.245 12.766Zm60.506-12.188H140.6l-3.848 6.806-3.769-6.802h-3.41l7.151 12.522c2.437-4.21 4.85-8.316 7.202-12.526Z"/>
  <path fill="#758671" d="m48.191 28.397.119-.046 7.305 9.33c.487-.008.935.046 1.398-.047V25.4a10.984 10.984 0 0 0-1.665.007v9.038c-.03.01-.061.018-.092.027-2.392-3.03-4.782-6.06-7.17-9.083-.526-.008-1.013-.044-1.524.026v12.24a9.963 9.963 0 0 0 1.629-.008v-9.251Zm-20.209 5.109c.137-.075.218-.13.306-.167 1.692-.736 2.519-2.002 2.52-3.86.001-2.608-2.05-4.05-4.149-4.085-1.693-.027-3.387-.008-5.08-.006-.195 0-.395-.03-.645.08v12.19c.566.043 1.092.03 1.71-.003v-3.906h3.466l2.848 3.905h2.038l-1.524-2.094-1.49-2.054Zm-5.092-1.382c-.054 0-.108-.025-.22-.053v-4.91c.125-.147.273-.123.41-.129a48.905 48.905 0 0 1 3.51 0c1.482.048 2.475.996 2.523 2.407.052 1.497-.831 2.566-2.334 2.66-1.292.08-2.593.023-3.89.026Z"/>
  <path fill="#18301F" d="M115.346 37.606h2.896V28.18h3.779v-2.759h-10.405v2.786h3.73v9.399Zm65.637-12.186h-14.7v3.716h14.7V25.42Zm-14.692 23.743H181v-3.67h-14.709v3.67Z"/>
  <path fill="#758671" d="M81.323 36.079h-7.3v-3.874h6.526c.046-.567.063-1.048-.02-1.597h-6.507v-3.65h7.316c.049-.566.066-1.058-.009-1.563h-8.99V37.64h9.026c.012-.527.062-1.01-.042-1.561Z"/>
  <path fill="#18301F" d="M180.989 35.481H166.29v3.684h14.699v-3.684Z"/>
  <path fill="#758671" d="M37.733 25.393c-1.895 4.076-3.784 8.143-5.697 12.262h1.79l1.462-3.164c2.126.043 4.22-.038 6.29.047l1.437 3.127h1.811l-5.607-12.272h-1.486Zm-1.67 7.454 2.364-5.26 2.391 5.26h-4.754Zm27.865 4.845c2.628.634 5.233-.311 6.636-2.16-.369-.345-.706-.733-1.141-1.029-.295.258-.552.497-.824.719-1.642 1.344-4.075 1.415-5.724.12-1.57-1.233-2.05-2.904-1.742-4.812.505-3.13 3.73-4.773 6.594-3.394.632.304 1.126.788 1.722 1.26a2208 2208 0 0 1 1.114-1.172c-1.471-1.94-4.603-2.726-7.119-1.82-2.631.948-4.334 3.545-4.174 6.39.17 3.052 2.163 5.295 4.658 5.898ZM10 25.413v12.253c.568.017 1.094.04 1.673-.018v-5.14h6.572c.032-.558.071-1.05-.022-1.608h-6.52v-3.942h7.186c.1-.545.09-1.194-.017-1.545H10Z"/>
  <path fill="#18301F" d="M127.461 25.416h-2.857v12.18h2.857v-12.18Z"/>
  <path fill="#758671" d="M121.381 62.5c-.086-.038-.198-.049-.24-.182.323-.278.656-.562.788-1 .287-.945-.182-1.86-1.118-2.197-.57-.206-1.159-.21-1.753-.204-.901.008-1.8.002-2.734.002v7.14c.117.016.187.036.255.036 1.144-.001 2.287.012 3.43-.016a3.373 3.373 0 0 0 1.274-.274c.713-.313 1.111-.835 1.13-1.627.02-.786-.301-1.354-1.032-1.678Zm-3.481-2.131c.679-.058 1.35-.116 2.012.028.322.07.473.34.475.669.004.38-.221.606-.563.694-.623.16-1.253.087-1.933.05-.045-.502-.059-.945.009-1.441Zm2.327 4.275c-.75.188-1.511.038-2.324.091a7.493 7.493 0 0 1-.007-1.584c.786-.01 1.554-.1 2.316.05.375.072.582.332.593.716.012.395-.213.635-.578.727Zm-67-2.129c-.098-.045-.221-.063-.28-.196.305-.28.65-.535.784-.96.352-1.122-.269-2.137-1.52-2.34-1.312-.213-2.642-.098-3.965-.06-.021 0-.042.035-.06.051v7.077c1.321-.002 2.589.044 3.855-.04a3.079 3.079 0 0 0 1.218-.323c.693-.355.988-.94.975-1.685-.014-.706-.346-1.226-1.007-1.524Zm-3.525-2.153c.719-.041 1.425-.143 2.12.08.284.092.392.338.387.635-.005.34-.185.555-.491.658-.645.215-1.304.07-2.004.11-.066-.527-.044-.97-.012-1.483Zm2.35 4.278c-.761.166-1.531.078-2.34.073-.063-.549-.04-1.022-.02-1.578.84.022 1.663-.122 2.47.108.322.092.485.365.47.718-.016.38-.234.604-.58.68Zm43.854-5.682v4.23l-.108.04-3.283-4.305c-.493.004-.955-.04-1.428.034v7.113c.514.03.972.04 1.508-.011v-4.354l.133-.042 3.359 4.413c.454.003.886.047 1.327-.032v-7.103a8.466 8.466 0 0 0-1.508.017Zm32.595 4.386c.937-.524 1.315-1.396 1.125-2.587-.139-.865-.876-1.603-1.84-1.739-1.33-.188-2.671-.107-4.008-.068-.022 0-.044.031-.079.057v7.053c.522.036.992.066 1.529-.016v-2.217c.457-.032.844-.06 1.237.008l1.521 2.208h1.83l-1.707-2.486c.171-.092.282-.151.392-.213Zm-1.241-.974c-.649.144-1.309.062-2.004.05a14.381 14.381 0 0 1-.007-2.055c.683-.047 1.317-.078 1.943.006.526.071.82.442.843.953.024.539-.237.927-.775 1.046Zm-67.014 1.024c1.02-.532 1.402-1.358 1.209-2.614-.142-.92-.872-1.626-1.9-1.771-1.305-.184-2.617-.084-3.926-.053-.023.001-.045.032-.076.055v7.062c.518.02.988.061 1.519-.037v-2.212h1.235c.535.769 1.007 1.55 1.547 2.223h1.796c-.554-.88-1.195-1.628-1.69-2.491.117-.067.2-.117.286-.162Zm-1.15-1.026c-.662.143-1.331.05-2.016.05v-2.047c.698-.04 1.37-.104 2.033.021.513.098.766.482.757 1.013-.008.498-.273.855-.773.962Zm27.39.915c.513.118 1.015-.047 1.52.115.036.338.067.666-.016.98-.957.635-2.315.522-3.014-.233-.73-.792-.793-2.254-.13-3.08.813-1.016 1.84-1.058 3.498-.125.363-.314.649-.706.962-1.105-1.16-1.339-3.977-1.363-5.332-.088-1.599 1.505-1.65 3.984-.114 5.499 1.36 1.34 4.4 1.259 5.667-.138v-3.13h-3.02c-.074.45-.06.874-.02 1.305Zm66.629-4.331c-.196.943.036 1.873-.089 2.81h-2.916v-2.815h-1.523v7.124c.526.023.998.051 1.504-.02.091-.939-.04-1.863.078-2.795h2.846c.079.946-.052 1.872.105 2.805.507.037.977.06 1.469-.011v-7.107a8.28 8.28 0 0 0-1.474.01Zm-52.405 5.755c-.007-.511-.051-.966.024-1.519h3.357c.02-.499.084-.935-.071-1.415h-3.289c-.039-.503-.091-.954.039-1.47h3.791c.008-.498.067-.923-.04-1.353H99.18v7.109h5.435c-.003-.457.067-.88-.051-1.353h-3.854Zm35.721.008h-3.782c-.033-.531-.073-.997.016-1.532h3.291c.032-.498.055-.925-.037-1.41h-3.281c-.035-.506-.058-.946.029-1.462h3.777c.038-.505.083-.93-.023-1.352h-5.343v7.094h5.413c-.014-.453.06-.866-.06-1.338Zm-71.971.005c-.03-.544-.048-1 .02-1.486 1.112-.115 2.21.046 3.32-.077.022-.47.063-.896-.04-1.377h-3.286a5.4 5.4 0 0 1 .014-1.458h3.796c.007-.504.064-.928-.026-1.357h-5.332v7.087h5.396c-.001-.456.077-.867-.054-1.332H64.46Zm78.755-.011c.153-.219.229-.35.326-.462 1.045-1.216 2.061-2.46 3.156-3.63.502-.537.385-1.076.352-1.664h-5.8c-.022.457-.064.88.005 1.323 1.227.154 2.435-.093 3.679.092-.098.138-.148.22-.211.294-1.063 1.239-2.097 2.504-3.205 3.701-.498.538-.371 1.083-.337 1.692h5.885c.026-.453.065-.865-.033-1.346h-3.817Zm-65.293-5.794-3.081 7.157c.607.029 1.122.042 1.635-.005.238-.545.462-1.056.683-1.565h2.978l.664 1.56h1.632l-3.01-7.147h-1.501Zm-.237 4.169c.316-.771.603-1.475.892-2.178l.122-.018.895 2.18c-.646.072-1.234.056-1.91.016Zm-2.48-4.137H69.25c-.06.475-.126.92.033 1.418h2.151v5.688c.547.053 1.016.066 1.556-.008v-5.66c.775-.089 1.493.029 2.222-.076.042-.473.067-.91-.007-1.362Zm62.788.003v7.129c.533-.005 1.018.056 1.518-.036v-7.097a7.805 7.805 0 0 0-1.518.005Z"/>
  <path fill="#18301F" d="m146.782 44.418-.122.33c-1.192-.74-2.56-.407-3.141.756-.319.639-.342 1.305.038 1.933.384.633 1.002.768 1.691.713.283-.023.533-.147.796-.256.005.55-.134.901-.498 1.106-.76.427-1.484.257-2.163-.206a1.703 1.703 0 0 0-.395.55c.71.494 1.48.58 2.295.398.954-.211 1.43-.78 1.448-1.747.007-.383.076-.748.16-1.118.182-.804.342-1.613.515-2.444a1.59 1.59 0 0 0-.624-.015Zm-.567 2.53c-.156.419-.597.557-1.04.583-.453.026-.835-.093-1.058-.526-.317-.613-.046-1.483.581-1.867.63-.386 1.315-.253 1.805.375.007.505-.121.988-.288 1.435Zm-7.9-2.535h-.566c-.154.076-.087.26-.22.31-1.074-.654-2.284-.433-2.96.536-.753 1.077-.31 2.563.863 2.841.515.122 1.027.035 1.541-.22-.011.483-.103.889-.512 1.124-.759.438-1.483.256-2.169-.224l-.392.512c.625.476 1.326.617 2.196.464.954-.168 1.473-.675 1.531-1.626.044-.72.22-1.407.369-2.104.111-.526.209-1.056.319-1.613Zm-1.153 2.427c-.121.459-.522.602-.926.683-.504.1-.959-.1-1.176-.469-.356-.603-.122-1.472.506-1.88.657-.429 1.39-.288 1.863.387-.089.432-.157.861-.267 1.28Zm-42.22-2.243c-.154-.227-.154-.227-.704-.15l-1.122 5.242h.652l.434-1.886c.91.68 1.952.662 2.708-.012.79-.704 1.001-1.82.487-2.623-.512-.801-1.494-1.064-2.455-.57Zm1.792 2.401c-.31.467-.741.764-1.336.739-.74-.03-1.077-.464-.924-1.179.047-.218.09-.437.134-.655.129-.626.517-.936 1.35-.943.278.005.654.167.878.573.28.503.202 1.007-.102 1.465Zm45.378 1.264.794-3.814c-.227-.075-.406-.054-.612-.022l-.15.34c-.098-.066-.176-.123-.259-.173-.745-.45-1.799-.292-2.485.374-.709.689-.904 1.78-.453 2.533.496.83 1.397 1.034 2.478.561.132.374.42.165.687.2Zm-2.437-.924c-.47-.576-.311-1.551.334-2.057.685-.539 1.472-.442 1.998.27-.046.561-.236 1.118-.333 1.663-.725.645-1.541.686-1.999.124Zm-35.185-.894c.205-.915-.198-1.677-1.003-1.976-.79-.295-1.667-.052-2.25.622-.543.628-.661 1.628-.277 2.324.573 1.035 2.15 1.224 3.125.367-.07-.162-.129-.332-.323-.432-.584.353-1.194.609-1.843.161-.347-.238-.516-.576-.439-1.066h3.01Zm-1.607-1.511c.584.04.918.357.982.963h-2.29c.164-.617.703-1.005 1.308-.963Zm48.284 2.88c-.097-.197-.137-.38-.331-.472-.6.376-1.226.615-1.883.152-.34-.239-.498-.583-.395-1.044h3.004c.037-.133.077-.211.079-.29.019-.629-.189-1.169-.724-1.521-.651-.428-1.336-.386-1.998-.013-.807.455-1.136 1.178-1.088 2.077.039.71.396 1.24 1.068 1.477.803.285 1.564.132 2.268-.366Zm-1.266-2.883c.574.007.962.358 1.035.962h-2.262c.09-.53.645-.968 1.227-.962Zm-79.944 1.512c.172-.592.008-1.082-.352-1.506-.757-.89-2.154-.764-2.971.255-.659.82-.585 2.043.162 2.71.68.604 2.03.544 2.72-.129-.056-.167-.11-.336-.31-.424-.615.385-1.253.623-1.91.11-.312-.244-.48-.568-.356-1.016h3.017Zm-1.703-1.513c.589-.008.972.323 1.062.97h-2.251c.065-.52.613-.962 1.19-.97Zm43.382-.577c-1.005-.037-1.816.557-2.139 1.567-.26.814.041 1.732.693 2.114.812.475 1.991.345 2.575-.291-.102-.125-.129-.31-.335-.398-.609.395-1.267.613-1.934.103-.305-.233-.444-.561-.314-.997h2.977c.256-1.101-.463-2.058-1.523-2.098Zm-1.379 1.536a1.313 1.313 0 0 1 1.328-.957c.544.035.881.36.962.957h-2.29Zm-31.138.556c.115-.878-.183-1.565-.772-1.88-.86-.46-2.026-.167-2.59.652-.601.874-.539 2.042.144 2.658.696.629 1.997.59 2.758-.09-.053-.172-.13-.328-.298-.42-.879.449-1.411.498-1.865.144-.324-.254-.503-.586-.43-1.064h3.053Zm-1.607-1.512c.572.03.937.398.942.97h-2.256c.08-.568.678-1.006 1.314-.97Zm48.498.185c-.671.867-.634 2.132.081 2.766.701.622 2.002.573 2.762-.111-.071-.161-.145-.322-.309-.41-.848.436-1.375.49-1.832.176-.366-.252-.536-.598-.462-1.102h3.01c.224-.646-.084-1.444-.675-1.81-.832-.515-1.964-.3-2.575.491Zm1.606-.19c.575.007.925.32 1.056.98h-2.3c.122-.59.636-.988 1.244-.98Zm-35.311 2.411c-.573.392-1.191.597-1.834.169-.343-.228-.52-.575-.447-1.052h3.062c.111-.933-.25-1.651-.936-1.95-.903-.394-1.984-.013-2.557.899-.498.794-.348 1.936.33 2.502.707.589 1.954.537 2.696-.118-.067-.161-.12-.333-.314-.45Zm-.79-2.403c.513.05.848.397.894.963H90.16a1.273 1.273 0 0 1 1.355-.963Zm41.351 1.159c-.159.704-.304 1.412-.455 2.117.223.082.402.064.641.019.182-.806.397-1.59.528-2.388.129-.785-.496-1.457-1.296-1.496-.431-.02-.796.146-1.175.371l-.03-.313c-.205.012-.4-.037-.623.05l-.777 3.763c.218.084.407.07.641.003l.607-2.736c.254-.216.495-.384.786-.47.806-.233 1.336.268 1.153 1.08Zm-49.473-.23c.116-.83-.343-1.389-1.121-1.504-.47-.069-.889.077-1.266.322-.13-.061-.005-.206-.144-.263-.168-.007-.364-.053-.571.052l-.795 3.794c.251-.002.443.053.656-.051.179-.797.357-1.601.54-2.406.121-.534.836-.941 1.432-.819.518.105.703.483.563 1.15l-.437 2.08c.216.087.396.059.643.039.172-.808.388-1.594.5-2.394Zm33.403 2.367.828-3.8c-.26-.036-.453-.062-.662.024-.173.773-.35 1.548-.52 2.326-.116.529-.527.882-1.083.918-.704.045-1.055-.349-.916-1.037.149-.736.306-1.47.462-2.214a1.078 1.078 0 0 0-.678.012c-.148.733-.295 1.472-.446 2.21-.201.982.359 1.656 1.357 1.645.338-.003.63-.125.916-.282.033-.018.072-.026.127-.045.027.087-.034.185.062.254.151.044.316.037.553-.01Zm-8.007-2.411c.059-.886-.553-1.498-1.449-1.471-.349.01-.651.152-.944.304-.103-.058-.014-.21-.195-.253-.124.013-.306-.044-.502.05l-.776 3.765c.221.085.398.07.576.03.12-.124.129-.284.161-.432.134-.616.262-1.234.392-1.85.134-.635.562-.985 1.209-.992.675-.006 1.005.412.853 1.066-.171.729-.33 1.46-.502 2.223.249 0 .442.05.668-.043.137-.61.279-1.234.416-1.86a3.41 3.41 0 0 0 .093-.537Zm-43.024 1.795h-2.472l.992-4.715c-.27-.002-.463-.038-.681.031l-1.182 5.326h3.218c.055-.21.14-.395.125-.642Z"/>
  <path fill="#758671" d="M108.68 62.228c-.02.519-.071.986.022 1.47h3.178c.068-.497.056-.964.01-1.47h-3.21Z"/>
  <path fill="#18301F" d="M121.823 44.355c-.484.089-.83.342-.951.837-.097.395.11.831.527 1.107.223.148.467.264.687.414.232.158.498.329.348.675-.148.339-.455.394-.781.36-.362-.038-.594-.285-.794-.562-.185.095-.362.147-.482.291.286.633.929.933 1.726.812.564-.087.931-.407 1.038-.908.084-.39-.148-.847-.586-1.126-.237-.15-.497-.265-.732-.42-.298-.195-.405-.457-.186-.792.504-.275.916-.123 1.284.295.138-.108.316-.136.404-.295-.285-.525-.886-.8-1.502-.688Zm31.659.557c.373-.036.635.168.886.412l.402-.262c-.298-.557-.896-.824-1.545-.693-.444.09-.791.3-.891.781-.095.46.062.832.438 1.098.252.179.528.322.793.481.34.204.487.462.238.828-.618.338-.894.274-1.523-.362-.147.089-.327.136-.444.283.279.62.864.914 1.637.826.575-.066.995-.401 1.111-.887.102-.43-.129-.866-.631-1.177-.251-.156-.517-.29-.761-.455-.188-.127-.275-.322-.204-.551.074-.237.267-.3.494-.322Zm-81.53 2.764c-.39.176-.738.078-1.057-.184-.106-.087-.145-.244-.3-.285-.146.081-.31.133-.436.29.315.636 1.004.937 1.758.784.56-.113.906-.425.998-.898.084-.434-.132-.84-.62-1.142-.227-.14-.466-.262-.694-.402-.24-.148-.366-.369-.264-.643.098-.265.347-.295.6-.285.317.013.535.21.74.418.158-.1.332-.139.412-.322-.265-.46-.682-.645-1.192-.658-.64-.016-1.032.23-1.185.734-.158.518.02.938.551 1.277.26.166.546.297.792.481.344.256.287.659-.103.835ZM85.17 43.46c-.183.276-.132.626-.294.92l-.646.034a.58.58 0 0 0-.113.53c.219.08.446-.03.66.111-.136.61-.27 1.224-.41 1.835-.092.392-.166.803.16 1.104.37.339.834.358 1.303.228.076-.165.166-.308.101-.5-.183 0-.364.005-.544 0-.301-.008-.46-.18-.407-.463.142-.752.315-1.5.473-2.237.393-.103.766.024 1.118-.087a.83.83 0 0 0 .084-.553h-1.089l.18-1.036a1.087 1.087 0 0 0-.576.114Zm2.812.958h-.571l-.82 3.803c.23.073.421.075.664.01.171-.758.368-1.528.513-2.307.087-.465.37-.69.772-.85.252-.1.525-.036.776-.097.056-.199.129-.366.088-.566-.504-.162-.925.053-1.325.298-.08-.096.021-.215-.097-.291Zm31.245-.005h-.538l-.831 3.823c.262.06.454.062.68.005.163-.756.326-1.52.494-2.284.126-.574.489-.883 1.077-.935.152-.014.31.033.463-.05.057-.179.166-.35.093-.571-.487-.13-.903.057-1.293.303-.137-.07.018-.238-.145-.29Zm-18.893.605c.136-.01.282.037.414-.057 0-.186.165-.359.041-.578a1.693 1.693 0 0 0-.658.037c-.229.063-.428.187-.633.292-.067-.108.04-.221-.072-.304-.183-.008-.377-.053-.578.045l-.799 3.795h.663c.162-.768.316-1.52.481-2.269.136-.62.5-.917 1.141-.961Zm50.881-2.174h-.822c-.239.312-.512.603-.713 1.002h.667l.868-1.002Z"/>
</svg>
